<svg xmlns="http://www.w3.org/2000/svg" width="512" height="512" viewBox="0 0 512 512">
  <rect width="512" height="512" fill="#000" />
  
  <g fill="#fff">
    <!-- Random stars -->
    <circle cx="50" cy="30" r="1" />
    <circle cx="120" cy="60" r="0.8" />
    <circle cx="200" cy="40" r="1.2" />
    <circle cx="300" cy="70" r="0.6" />
    <circle cx="400" cy="30" r="1" />
    <circle cx="480" cy="90" r="0.7" />
    
    <circle cx="30" cy="150" r="0.9" />
    <circle cx="100" cy="180" r="1.1" />
    <circle cx="180" cy="120" r="0.7" />
    <circle cx="280" cy="170" r="1" />
    <circle cx="350" cy="130" r="0.8" />
    <circle cx="450" cy="190" r="1.2" />
    
    <circle cx="60" cy="250" r="1" />
    <circle cx="140" cy="220" r="0.6" />
    <circle cx="230" cy="280" r="1.3" />
    <circle cx="320" cy="240" r="0.9" />
    <circle cx="390" cy="290" r="1" />
    <circle cx="470" cy="260" r="0.7" />
    
    <circle cx="40" cy="350" r="0.8" />
    <circle cx="120" cy="380" r="1.1" />
    <circle cx="190" cy="320" r="0.6" />
    <circle cx="280" cy="370" r="1" />
    <circle cx="360" cy="330" r="0.9" />
    <circle cx="440" cy="390" r="1.2" />
    
    <circle cx="70" cy="450" r="1" />
    <circle cx="150" cy="420" r="0.7" />
    <circle cx="240" cy="480" r="1.3" />
    <circle cx="330" cy="440" r="0.9" />
    <circle cx="410" cy="490" r="1" />
    <circle cx="490" cy="460" r="0.8" />
    
    <!-- Brighter stars -->
    <circle cx="100" cy="100" r="1.5" />
    <circle cx="250" cy="150" r="1.8" />
    <circle cx="400" cy="120" r="1.6" />
    <circle cx="150" cy="300" r="1.7" />
    <circle cx="350" cy="400" r="1.5" />
    <circle cx="450" cy="350" r="1.7" />
  </g>
</svg>
